<mxfile host="app.diagrams.net" agent="Mozilla/5.0 (Windows NT 10.0; Win64; x64) AppleWebKit/537.36 (KHTML, like Gecko) Chrome/131.0.0.0 Safari/537.36" version="24.8.6">
  <diagram id="fibcwjEclzMkYl64Zc0Q" name="Halaman-2">
    <mxGraphModel dx="793" dy="459" grid="1" gridSize="10" guides="1" tooltips="1" connect="1" arrows="1" fold="1" page="1" pageScale="1" pageWidth="827" pageHeight="1169" math="0" shadow="0">
      <root>
        <mxCell id="0" />
        <mxCell id="1" parent="0" />
        <mxCell id="lwXBzrZFB9Pb2pgadV3i-12" style="edgeStyle=orthogonalEdgeStyle;rounded=0;orthogonalLoop=1;jettySize=auto;html=1;exitX=1;exitY=0.5;exitDx=0;exitDy=0;exitPerimeter=0;entryX=0;entryY=0.5;entryDx=0;entryDy=0;" edge="1" parent="1" source="lwXBzrZFB9Pb2pgadV3i-4" target="lwXBzrZFB9Pb2pgadV3i-9">
          <mxGeometry relative="1" as="geometry" />
        </mxCell>
        <mxCell id="lwXBzrZFB9Pb2pgadV3i-4" value="Start" style="strokeWidth=2;html=1;shape=mxgraph.flowchart.start_1;whiteSpace=wrap;" vertex="1" parent="1">
          <mxGeometry x="20" y="190" width="100" height="60" as="geometry" />
        </mxCell>
        <mxCell id="lwXBzrZFB9Pb2pgadV3i-13" style="edgeStyle=orthogonalEdgeStyle;rounded=0;orthogonalLoop=1;jettySize=auto;html=1;exitX=1;exitY=0.5;exitDx=0;exitDy=0;entryX=0;entryY=0.5;entryDx=0;entryDy=0;" edge="1" parent="1" source="lwXBzrZFB9Pb2pgadV3i-9" target="lwXBzrZFB9Pb2pgadV3i-11">
          <mxGeometry relative="1" as="geometry" />
        </mxCell>
        <mxCell id="lwXBzrZFB9Pb2pgadV3i-9" value="Isi Email" style="rounded=1;whiteSpace=wrap;html=1;" vertex="1" parent="1">
          <mxGeometry x="180" y="190" width="120" height="60" as="geometry" />
        </mxCell>
        <mxCell id="lwXBzrZFB9Pb2pgadV3i-14" style="edgeStyle=orthogonalEdgeStyle;rounded=0;orthogonalLoop=1;jettySize=auto;html=1;exitX=0.5;exitY=0;exitDx=0;exitDy=0;entryX=0.5;entryY=0;entryDx=0;entryDy=0;" edge="1" parent="1" source="lwXBzrZFB9Pb2pgadV3i-11" target="lwXBzrZFB9Pb2pgadV3i-9">
          <mxGeometry relative="1" as="geometry" />
        </mxCell>
        <mxCell id="lwXBzrZFB9Pb2pgadV3i-15" value="Tidak" style="edgeLabel;html=1;align=center;verticalAlign=middle;resizable=0;points=[];" vertex="1" connectable="0" parent="lwXBzrZFB9Pb2pgadV3i-14">
          <mxGeometry x="-0.113" relative="1" as="geometry">
            <mxPoint as="offset" />
          </mxGeometry>
        </mxCell>
        <mxCell id="lwXBzrZFB9Pb2pgadV3i-17" style="edgeStyle=orthogonalEdgeStyle;rounded=0;orthogonalLoop=1;jettySize=auto;html=1;exitX=1;exitY=0.5;exitDx=0;exitDy=0;entryX=0;entryY=0.5;entryDx=0;entryDy=0;" edge="1" parent="1" source="lwXBzrZFB9Pb2pgadV3i-11" target="lwXBzrZFB9Pb2pgadV3i-16">
          <mxGeometry relative="1" as="geometry" />
        </mxCell>
        <mxCell id="lwXBzrZFB9Pb2pgadV3i-18" value="Iya" style="edgeLabel;html=1;align=center;verticalAlign=middle;resizable=0;points=[];" vertex="1" connectable="0" parent="lwXBzrZFB9Pb2pgadV3i-17">
          <mxGeometry y="-3" relative="1" as="geometry">
            <mxPoint as="offset" />
          </mxGeometry>
        </mxCell>
        <mxCell id="lwXBzrZFB9Pb2pgadV3i-11" value="Apakah Berhasil atau Gagal?" style="rhombus;whiteSpace=wrap;html=1;" vertex="1" parent="1">
          <mxGeometry x="364" y="165" width="100" height="110" as="geometry" />
        </mxCell>
        <mxCell id="lwXBzrZFB9Pb2pgadV3i-20" style="edgeStyle=orthogonalEdgeStyle;rounded=0;orthogonalLoop=1;jettySize=auto;html=1;exitX=1;exitY=0.5;exitDx=0;exitDy=0;entryX=0;entryY=0.5;entryDx=0;entryDy=0;" edge="1" parent="1" source="lwXBzrZFB9Pb2pgadV3i-16" target="lwXBzrZFB9Pb2pgadV3i-19">
          <mxGeometry relative="1" as="geometry" />
        </mxCell>
        <mxCell id="lwXBzrZFB9Pb2pgadV3i-16" value="Isi Nama" style="rounded=1;whiteSpace=wrap;html=1;" vertex="1" parent="1">
          <mxGeometry x="520" y="190" width="120" height="60" as="geometry" />
        </mxCell>
        <mxCell id="lwXBzrZFB9Pb2pgadV3i-21" style="edgeStyle=orthogonalEdgeStyle;rounded=0;orthogonalLoop=1;jettySize=auto;html=1;exitX=0.5;exitY=0;exitDx=0;exitDy=0;entryX=0.5;entryY=0;entryDx=0;entryDy=0;" edge="1" parent="1" source="lwXBzrZFB9Pb2pgadV3i-19" target="lwXBzrZFB9Pb2pgadV3i-16">
          <mxGeometry relative="1" as="geometry" />
        </mxCell>
        <mxCell id="lwXBzrZFB9Pb2pgadV3i-22" value="Tidak" style="edgeLabel;html=1;align=center;verticalAlign=middle;resizable=0;points=[];" vertex="1" connectable="0" parent="lwXBzrZFB9Pb2pgadV3i-21">
          <mxGeometry x="-0.0963" y="2" relative="1" as="geometry">
            <mxPoint as="offset" />
          </mxGeometry>
        </mxCell>
        <mxCell id="lwXBzrZFB9Pb2pgadV3i-24" style="edgeStyle=orthogonalEdgeStyle;rounded=0;orthogonalLoop=1;jettySize=auto;html=1;exitX=0.5;exitY=1;exitDx=0;exitDy=0;" edge="1" parent="1" source="lwXBzrZFB9Pb2pgadV3i-19" target="lwXBzrZFB9Pb2pgadV3i-23">
          <mxGeometry relative="1" as="geometry" />
        </mxCell>
        <mxCell id="lwXBzrZFB9Pb2pgadV3i-25" value="Iya" style="edgeLabel;html=1;align=center;verticalAlign=middle;resizable=0;points=[];" vertex="1" connectable="0" parent="lwXBzrZFB9Pb2pgadV3i-24">
          <mxGeometry x="0.008" y="2" relative="1" as="geometry">
            <mxPoint as="offset" />
          </mxGeometry>
        </mxCell>
        <mxCell id="lwXBzrZFB9Pb2pgadV3i-19" value="Apakah berhasil atau tidak?" style="rhombus;whiteSpace=wrap;html=1;" vertex="1" parent="1">
          <mxGeometry x="690" y="165" width="100" height="110" as="geometry" />
        </mxCell>
        <mxCell id="lwXBzrZFB9Pb2pgadV3i-28" style="edgeStyle=orthogonalEdgeStyle;rounded=0;orthogonalLoop=1;jettySize=auto;html=1;exitX=0;exitY=0.5;exitDx=0;exitDy=0;entryX=1;entryY=0.5;entryDx=0;entryDy=0;" edge="1" parent="1" source="lwXBzrZFB9Pb2pgadV3i-23" target="lwXBzrZFB9Pb2pgadV3i-27">
          <mxGeometry relative="1" as="geometry" />
        </mxCell>
        <mxCell id="lwXBzrZFB9Pb2pgadV3i-23" value="Masukan Password" style="rounded=1;whiteSpace=wrap;html=1;" vertex="1" parent="1">
          <mxGeometry x="680" y="400" width="120" height="60" as="geometry" />
        </mxCell>
        <mxCell id="lwXBzrZFB9Pb2pgadV3i-30" style="edgeStyle=orthogonalEdgeStyle;rounded=0;orthogonalLoop=1;jettySize=auto;html=1;exitX=0.5;exitY=1;exitDx=0;exitDy=0;entryX=0.5;entryY=1;entryDx=0;entryDy=0;" edge="1" parent="1" source="lwXBzrZFB9Pb2pgadV3i-27" target="lwXBzrZFB9Pb2pgadV3i-23">
          <mxGeometry relative="1" as="geometry" />
        </mxCell>
        <mxCell id="lwXBzrZFB9Pb2pgadV3i-31" value="Tidak" style="edgeLabel;html=1;align=center;verticalAlign=middle;resizable=0;points=[];" vertex="1" connectable="0" parent="lwXBzrZFB9Pb2pgadV3i-30">
          <mxGeometry x="-0.0954" y="-1" relative="1" as="geometry">
            <mxPoint as="offset" />
          </mxGeometry>
        </mxCell>
        <mxCell id="lwXBzrZFB9Pb2pgadV3i-33" style="edgeStyle=orthogonalEdgeStyle;rounded=0;orthogonalLoop=1;jettySize=auto;html=1;exitX=0;exitY=0.5;exitDx=0;exitDy=0;entryX=1;entryY=0.5;entryDx=0;entryDy=0;" edge="1" parent="1" source="lwXBzrZFB9Pb2pgadV3i-27" target="lwXBzrZFB9Pb2pgadV3i-32">
          <mxGeometry relative="1" as="geometry" />
        </mxCell>
        <mxCell id="lwXBzrZFB9Pb2pgadV3i-34" value="Iya" style="edgeLabel;html=1;align=center;verticalAlign=middle;resizable=0;points=[];" vertex="1" connectable="0" parent="lwXBzrZFB9Pb2pgadV3i-33">
          <mxGeometry x="-0.0444" y="2" relative="1" as="geometry">
            <mxPoint as="offset" />
          </mxGeometry>
        </mxCell>
        <mxCell id="lwXBzrZFB9Pb2pgadV3i-27" value="Apakah berhasil atau Tidak?" style="rhombus;whiteSpace=wrap;html=1;" vertex="1" parent="1">
          <mxGeometry x="500" y="375" width="100" height="110" as="geometry" />
        </mxCell>
        <mxCell id="lwXBzrZFB9Pb2pgadV3i-32" value="Klik tombol Daftar" style="rounded=1;whiteSpace=wrap;html=1;" vertex="1" parent="1">
          <mxGeometry x="320" y="400" width="120" height="60" as="geometry" />
        </mxCell>
        <mxCell id="lwXBzrZFB9Pb2pgadV3i-36" value="Finish" style="strokeWidth=2;html=1;shape=mxgraph.flowchart.start_1;whiteSpace=wrap;" vertex="1" parent="1">
          <mxGeometry x="180" y="400" width="100" height="60" as="geometry" />
        </mxCell>
        <mxCell id="lwXBzrZFB9Pb2pgadV3i-37" style="edgeStyle=orthogonalEdgeStyle;rounded=0;orthogonalLoop=1;jettySize=auto;html=1;exitX=0;exitY=0.5;exitDx=0;exitDy=0;entryX=1;entryY=0.5;entryDx=0;entryDy=0;entryPerimeter=0;" edge="1" parent="1" source="lwXBzrZFB9Pb2pgadV3i-32" target="lwXBzrZFB9Pb2pgadV3i-36">
          <mxGeometry relative="1" as="geometry" />
        </mxCell>
      </root>
    </mxGraphModel>
  </diagram>
</mxfile>
